<svg width="16" height="16" viewBox="0 0 16 16" fill="none" xmlns="http://www.w3.org/2000/svg">
<rect width="16" height="16" fill="white" fill-opacity="0.01"/>
<path fill-rule="evenodd" clipRule="evenodd" d="M2.98672 1.06672L2.93303 1.06668C2.68935 1.06645 2.47929 1.06625 2.2932 1.11093C1.70817 1.25138 1.25138 1.70817 1.11093 2.2932C1.06625 2.47929 1.06645 2.68935 1.06668 2.93303L1.06672 2.98672V5.54672L1.06668 5.6004C1.06645 5.84408 1.06625 6.05415 1.11093 6.24023C1.25138 6.82526 1.70817 7.28205 2.2932 7.42251C2.47929 7.46718 2.68935 7.46698 2.93303 7.46675L2.98672 7.46672H5.54672L5.6004 7.46675C5.84408 7.46698 6.05415 7.46718 6.24023 7.42251C6.82526 7.28205 7.28205 6.82526 7.42251 6.24023C7.46718 6.05415 7.46698 5.84408 7.46675 5.6004L7.46672 5.54672V2.98672L7.46675 2.93303C7.46698 2.68935 7.46718 2.47929 7.42251 2.2932C7.28205 1.70817 6.82526 1.25138 6.24023 1.11093C6.05415 1.06625 5.84408 1.06645 5.6004 1.06668L5.54672 1.06672H2.98672ZM2.54221 2.14812C2.58812 2.13709 2.65842 2.13338 2.98672 2.13338H5.54672C5.87502 2.13338 5.94532 2.13709 5.99122 2.14812C6.18624 2.19494 6.33849 2.3472 6.38532 2.54221C6.39634 2.58812 6.40005 2.65842 6.40005 2.98672V5.54672C6.40005 5.87502 6.39634 5.94532 6.38532 5.99122C6.33849 6.18624 6.18624 6.33849 5.99122 6.38532C5.94532 6.39634 5.87502 6.40005 5.54672 6.40005H2.98672C2.65842 6.40005 2.58812 6.39634 2.54221 6.38532C2.3472 6.33849 2.19494 6.18624 2.14812 5.99122C2.13709 5.94532 2.13338 5.87502 2.13338 5.54672V2.98672C2.13338 2.65842 2.13709 2.58812 2.14812 2.54221C2.19494 2.3472 2.3472 2.19494 2.54221 2.14812ZM10.4534 1.06672L10.3997 1.06668C10.156 1.06645 9.94596 1.06625 9.75987 1.11093C9.17483 1.25138 8.71804 1.70817 8.57759 2.2932C8.53291 2.47929 8.53311 2.68935 8.53335 2.93303L8.53338 2.98672V5.54672L8.53335 5.6004C8.53311 5.84408 8.53291 6.05415 8.57759 6.24023C8.71804 6.82526 9.17483 7.28205 9.75987 7.42251C9.94596 7.46718 10.156 7.46698 10.3997 7.46675L10.4534 7.46672H13.0134L13.067 7.46675C13.3108 7.46698 13.5208 7.46718 13.7069 7.42251C14.2919 7.28205 14.7487 6.82526 14.8892 6.24023C14.9338 6.05415 14.9337 5.84408 14.9334 5.6004V5.54672V2.98672V2.93303C14.9337 2.68935 14.9338 2.47929 14.8892 2.2932C14.7487 1.70817 14.2919 1.25138 13.7069 1.11093C13.5208 1.06625 13.3108 1.06645 13.067 1.06668L13.0134 1.06672H10.4534ZM10.0089 2.14812C10.0548 2.13709 10.1251 2.13338 10.4534 2.13338H13.0134C13.3417 2.13338 13.412 2.13709 13.4579 2.14812C13.6528 2.19494 13.8052 2.3472 13.852 2.54221C13.863 2.58812 13.8667 2.65842 13.8667 2.98672V5.54672C13.8667 5.87502 13.863 5.94532 13.852 5.99122C13.8052 6.18624 13.6528 6.33849 13.4579 6.38532C13.412 6.39634 13.3417 6.40005 13.0134 6.40005H10.4534C10.1251 6.40005 10.0548 6.39634 10.0089 6.38532C9.81386 6.33849 9.6616 6.18624 9.61479 5.99122C9.60376 5.94532 9.60005 5.87502 9.60005 5.54672V2.98672C9.60005 2.65842 9.60376 2.58812 9.61479 2.54221C9.6616 2.3472 9.81386 2.19494 10.0089 2.14812ZM2.93303 8.53335L2.98672 8.53338H5.54672L5.6004 8.53335C5.84408 8.53311 6.05415 8.53291 6.24023 8.57759C6.82526 8.71804 7.28205 9.17483 7.42251 9.75987C7.46718 9.94596 7.46698 10.156 7.46675 10.3997L7.46672 10.4534V13.0134L7.46675 13.067C7.46698 13.3108 7.46718 13.5208 7.42251 13.7069C7.28205 14.2919 6.82526 14.7487 6.24023 14.8892C6.05415 14.9338 5.84408 14.9337 5.6004 14.9334H5.54672H2.98672H2.93303C2.68935 14.9337 2.47929 14.9338 2.2932 14.8892C1.70817 14.7487 1.25138 14.2919 1.11093 13.7069C1.06625 13.5208 1.06645 13.3108 1.06668 13.067L1.06672 13.0134V10.4534L1.06668 10.3997C1.06645 10.156 1.06625 9.94596 1.11093 9.75987C1.25138 9.17483 1.70817 8.71804 2.2932 8.57759C2.47929 8.53291 2.68935 8.53311 2.93303 8.53335ZM2.98672 9.60005C2.65842 9.60005 2.58812 9.60376 2.54221 9.61479C2.3472 9.6616 2.19494 9.81386 2.14812 10.0089C2.13709 10.0548 2.13338 10.1251 2.13338 10.4534V13.0134C2.13338 13.3417 2.13709 13.412 2.14812 13.4579C2.19494 13.6528 2.3472 13.8052 2.54221 13.852C2.58812 13.863 2.65842 13.8667 2.98672 13.8667H5.54672C5.87502 13.8667 5.94532 13.863 5.99122 13.852C6.18624 13.8052 6.33849 13.6528 6.38532 13.4579C6.39634 13.412 6.40005 13.3417 6.40005 13.0134V10.4534C6.40005 10.1251 6.39634 10.0548 6.38532 10.0089C6.33849 9.81386 6.18624 9.6616 5.99122 9.61479C5.94532 9.60376 5.87502 9.60005 5.54672 9.60005H2.98672ZM10.4534 8.53338L10.3997 8.53335C10.156 8.53311 9.94596 8.53291 9.75987 8.57759C9.17483 8.71804 8.71804 9.17483 8.57759 9.75987C8.53291 9.94596 8.53311 10.156 8.53335 10.3997L8.53338 10.4534V13.0134L8.53335 13.067C8.53311 13.3108 8.53291 13.5208 8.57759 13.7069C8.71804 14.2919 9.17483 14.7487 9.75987 14.8892C9.94596 14.9338 10.156 14.9337 10.3997 14.9334H10.4534H13.0134H13.067C13.3108 14.9337 13.5208 14.9338 13.7069 14.8892C14.2919 14.7487 14.7487 14.2919 14.8892 13.7069C14.9338 13.5208 14.9337 13.3108 14.9334 13.067V13.0134V10.4534V10.3997C14.9337 10.156 14.9338 9.94596 14.8892 9.75987C14.7487 9.17483 14.2919 8.71804 13.7069 8.57759C13.5208 8.53291 13.3108 8.53311 13.067 8.53335L13.0134 8.53338H10.4534ZM10.0089 9.61479C10.0548 9.60376 10.1251 9.60005 10.4534 9.60005H13.0134C13.3417 9.60005 13.412 9.60376 13.4579 9.61479C13.6528 9.6616 13.8052 9.81386 13.852 10.0089C13.863 10.0548 13.8667 10.1251 13.8667 10.4534V13.0134C13.8667 13.3417 13.863 13.412 13.852 13.4579C13.8052 13.6528 13.6528 13.8052 13.4579 13.852C13.412 13.863 13.3417 13.8667 13.0134 13.8667H10.4534C10.1251 13.8667 10.0548 13.863 10.0089 13.852C9.81386 13.8052 9.6616 13.6528 9.61479 13.4579C9.60376 13.412 9.60005 13.3417 9.60005 13.0134V10.4534C9.60005 10.1251 9.60376 10.0548 9.61479 10.0089C9.6616 9.81386 9.81386 9.6616 10.0089 9.61479Z" fill="white"/>
</svg>
