<svg className="icon" width="40" height="18" viewBox="0 0 40 18" fill="none" xmlns="http://www.w3.org/2000/svg">
<g clip-path="url(#clip0_5001_2272)">
<path d="M0.200012 4C0.200012 1.79086 1.99087 0 4.20001 0H36C38.2092 0 40 1.79086 40 4V14C40 16.2091 38.2092 18 36 18H4.20001C1.99087 18 0.200012 16.2091 0.200012 14V4Z" fill="#FCFDFC"/>
<path d="M10.9977 15.2614C10.547 15.2614 10.1341 15.1515 9.7591 14.9318C9.3841 14.7083 9.08485 14.4091 8.86137 14.0341C8.64167 13.6591 8.53182 13.2462 8.53182 12.7955C8.53182 12.3409 8.64167 11.9261 8.86137 11.5511C9.08485 11.1761 9.3841 10.8769 9.7591 10.6534C10.1341 10.4299 10.547 10.3182 10.9977 10.3182H12.3159V8.03409H10.9977C10.547 8.03409 10.1341 7.92424 9.7591 7.70455C9.3841 7.48106 9.08485 7.18371 8.86137 6.8125C8.64167 6.4375 8.53182 6.02273 8.53182 5.56818C8.53182 5.11364 8.64167 4.70076 8.86137 4.32955C9.08485 3.95455 9.3841 3.6572 9.7591 3.4375C10.1341 3.21401 10.547 3.10227 10.9977 3.10227C11.4523 3.10227 11.8671 3.21401 12.2421 3.4375C12.6171 3.6572 12.9163 3.95455 13.1398 4.32955C13.3633 4.70076 13.475 5.11364 13.475 5.56818V6.875H15.7591V5.56818C15.7591 5.11364 15.8689 4.70076 16.0886 4.32955C16.3121 3.95455 16.6095 3.6572 16.9807 3.4375C17.3557 3.21401 17.7705 3.10227 18.225 3.10227C18.6796 3.10227 19.0924 3.21401 19.4636 3.4375C19.8386 3.6572 20.136 3.95455 20.3557 4.32955C20.5792 4.70076 20.6909 5.11364 20.6909 5.56818C20.6909 6.02273 20.5792 6.4375 20.3557 6.8125C20.136 7.18371 19.8386 7.48106 19.4636 7.70455C19.0924 7.92424 18.6796 8.03409 18.225 8.03409H16.9182V10.3182H18.225C18.6796 10.3182 19.0924 10.4299 19.4636 10.6534C19.8386 10.8769 20.136 11.1761 20.3557 11.5511C20.5792 11.9261 20.6909 12.3409 20.6909 12.7955C20.6909 13.2462 20.5792 13.6591 20.3557 14.0341C20.136 14.4091 19.8386 14.7083 19.4636 14.9318C19.0924 15.1515 18.6796 15.2614 18.225 15.2614C17.7705 15.2614 17.3557 15.1515 16.9807 14.9318C16.6095 14.7083 16.3121 14.4091 16.0886 14.0341C15.8689 13.6591 15.7591 13.2462 15.7591 12.7955V11.4773H13.475V12.7955C13.475 13.2462 13.3633 13.6591 13.1398 14.0341C12.9163 14.4091 12.6171 14.7083 12.2421 14.9318C11.8671 15.1515 11.4523 15.2614 10.9977 15.2614ZM10.9977 14.1023C11.2402 14.1023 11.4599 14.0436 11.6568 13.9261C11.8576 13.8087 12.0167 13.6515 12.1341 13.4545C12.2553 13.2538 12.3159 13.0341 12.3159 12.7955V11.4773H10.9977C10.7591 11.4773 10.5394 11.5379 10.3386 11.6591C10.1417 11.7765 9.98448 11.9356 9.86705 12.1364C9.74963 12.3333 9.69092 12.553 9.69092 12.7955C9.69092 13.0341 9.74963 13.2538 9.86705 13.4545C9.98448 13.6515 10.1417 13.8087 10.3386 13.9261C10.5394 14.0436 10.7591 14.1023 10.9977 14.1023ZM10.9977 6.875H12.3159V5.56818C12.3159 5.32576 12.2553 5.10606 12.1341 4.90909C12.0167 4.71212 11.8576 4.55492 11.6568 4.4375C11.4599 4.32008 11.2402 4.26136 10.9977 4.26136C10.7591 4.26136 10.5394 4.32008 10.3386 4.4375C10.1417 4.55492 9.98448 4.71212 9.86705 4.90909C9.74963 5.10606 9.69092 5.32576 9.69092 5.56818C9.69092 5.81061 9.74963 6.0322 9.86705 6.23295C9.98448 6.42992 10.1417 6.58712 10.3386 6.70455C10.5394 6.81818 10.7591 6.875 10.9977 6.875ZM16.9182 6.875H18.225C18.4674 6.875 18.6871 6.81818 18.8841 6.70455C19.0811 6.58712 19.2383 6.42992 19.3557 6.23295C19.4731 6.0322 19.5318 5.81061 19.5318 5.56818C19.5318 5.32576 19.4731 5.10606 19.3557 4.90909C19.2383 4.71212 19.0811 4.55492 18.8841 4.4375C18.6871 4.32008 18.4674 4.26136 18.225 4.26136C17.9826 4.26136 17.761 4.32008 17.5602 4.4375C17.3633 4.55492 17.2061 4.71212 17.0886 4.90909C16.975 5.10606 16.9182 5.32576 16.9182 5.56818V6.875ZM18.225 14.1023C18.4674 14.1023 18.6871 14.0436 18.8841 13.9261C19.0811 13.8087 19.2383 13.6515 19.3557 13.4545C19.4731 13.2538 19.5318 13.0341 19.5318 12.7955C19.5318 12.553 19.4731 12.3333 19.3557 12.1364C19.2383 11.9356 19.0811 11.7765 18.8841 11.6591C18.6871 11.5379 18.4674 11.4773 18.225 11.4773H16.9182V12.7955C16.9182 13.0341 16.975 13.2538 17.0886 13.4545C17.2061 13.6515 17.3633 13.8087 17.5602 13.9261C17.761 14.0436 17.9826 14.1023 18.225 14.1023ZM13.475 10.3182H15.7591V8.03409H13.475V10.3182ZM30.3884 6.27273C30.3202 5.69697 30.0437 5.25 29.5588 4.93182C29.074 4.61364 28.4793 4.45455 27.7747 4.45455C27.2596 4.45455 26.8088 4.53788 26.4224 4.70455C26.0399 4.87121 25.7406 5.10038 25.5247 5.39205C25.3126 5.68371 25.2065 6.01515 25.2065 6.38636C25.2065 6.69697 25.2804 6.96401 25.4281 7.1875C25.5796 7.4072 25.7728 7.59091 26.0077 7.73864C26.2425 7.88258 26.4887 8.00189 26.7463 8.09659C27.0039 8.1875 27.2406 8.26136 27.4565 8.31818L28.6384 8.63636C28.9414 8.71591 29.2785 8.82576 29.6497 8.96591C30.0247 9.10606 30.3827 9.29735 30.7236 9.53977C31.0683 9.77841 31.3524 10.0852 31.5759 10.4602C31.7993 10.8352 31.9111 11.2955 31.9111 11.8409C31.9111 12.4697 31.7463 13.0379 31.4168 13.5455C31.091 14.053 30.6137 14.4564 29.9849 14.7557C29.3599 15.0549 28.6005 15.2045 27.7065 15.2045C26.8732 15.2045 26.1516 15.0701 25.5418 14.8011C24.9357 14.5322 24.4584 14.1572 24.1099 13.6761C23.7653 13.1951 23.5702 12.6364 23.5247 12H24.9793C25.0171 12.4394 25.1649 12.803 25.4224 13.0909C25.6838 13.375 26.0134 13.5871 26.4111 13.7273C26.8126 13.8636 27.2444 13.9318 27.7065 13.9318C28.2444 13.9318 28.7274 13.8447 29.1554 13.6705C29.5834 13.4924 29.9224 13.2462 30.1724 12.9318C30.4224 12.6136 30.5474 12.2424 30.5474 11.8182C30.5474 11.4318 30.4395 11.1174 30.2236 10.875C30.0077 10.6326 29.7236 10.4356 29.3713 10.2841C29.019 10.1326 28.6384 10 28.2293 9.88636L26.7974 9.47727C25.8884 9.21591 25.1687 8.8428 24.6384 8.35795C24.1081 7.87311 23.8429 7.23864 23.8429 6.45455C23.8429 5.80303 24.019 5.23485 24.3713 4.75C24.7274 4.26136 25.2046 3.88258 25.8031 3.61364C26.4054 3.34091 27.0778 3.20455 27.8202 3.20455C28.5702 3.20455 29.2368 3.33901 29.8202 3.60795C30.4035 3.87311 30.8656 4.23674 31.2065 4.69886C31.5512 5.16098 31.7331 5.68561 31.752 6.27273H30.3884Z" fill="#1D211C"/>
</g>
<defs>
<clipPath id="clip0_5001_2272">
<path d="M0.200012 4C0.200012 1.79086 1.99087 0 4.20001 0H36C38.2092 0 40 1.79086 40 4V14C40 16.2091 38.2092 18 36 18H4.20001C1.99087 18 0.200012 16.2091 0.200012 14V4Z" fill="white"/>
</clipPath>
</defs>
</svg>
